<?xml version="1.0" encoding="UTF-8" standalone="no"?>
<!DOCTYPE svg PUBLIC "-//W3C//DTD SVG 1.1//EN"
 "http://www.w3.org/Graphics/SVG/1.1/DTD/svg11.dtd">
<!-- Generated by graphviz version 2.43.0 (0)
 -->
<!-- Title: NorthstarFlagResidency Pages: 1 -->
<svg width="1039pt" height="1034pt"
 viewBox="0.00 0.00 1039.40 1033.53" xmlns="http://www.w3.org/2000/svg" xmlns:xlink="http://www.w3.org/1999/xlink">
<g id="graph0" class="graph" transform="scale(1 1) rotate(0) translate(25.2 1008.33)">
<title>NorthstarFlagResidency</title>
<polygon fill="#0d1117" stroke="transparent" points="-25.2,25.2 -25.2,-1008.33 1014.2,-1008.33 1014.2,25.2 -25.2,25.2"/>
<text text-anchor="middle" x="494.5" y="-961.53" font-family="Inter,Arial,sans-serif" font-size="22.00" fill="#e6edf3">Northstar Server: FLAG residency and normal access boundaries</text>
<g id="clust1" class="cluster">
<title>cluster_deployment</title>
<path fill="#0d1117" stroke="#1f6feb" d="M186,-517.88C186,-517.88 418,-517.88 418,-517.88 424,-517.88 430,-523.88 430,-529.88 430,-529.88 430,-931.13 430,-931.13 430,-937.13 424,-943.13 418,-943.13 418,-943.13 186,-943.13 186,-943.13 180,-943.13 174,-937.13 174,-931.13 174,-931.13 174,-529.88 174,-529.88 174,-523.88 180,-517.88 186,-517.88"/>
<text text-anchor="middle" x="302" y="-921.53" font-family="Inter,Arial,sans-serif" font-size="22.00" fill="#79c0ff">1. Deployment</text>
</g>
<g id="clust2" class="cluster">
<title>cluster_seed</title>
<path fill="#0d1117" stroke="#3fb950" d="M20,-111C20,-111 306,-111 306,-111 312,-111 318,-117 318,-123 318,-123 318,-463.38 318,-463.38 318,-469.38 312,-475.38 306,-475.38 306,-475.38 20,-475.38 20,-475.38 14,-475.38 8,-469.38 8,-463.38 8,-463.38 8,-123 8,-123 8,-117 14,-111 20,-111"/>
<text text-anchor="middle" x="163" y="-453.77" font-family="Inter,Arial,sans-serif" font-size="22.00" fill="#7ee787">2. Initialization: prisma/seed.js</text>
</g>
<g id="clust3" class="cluster">
<title>cluster_server</title>
<path fill="#0d1117" stroke="#1f6feb" d="M341,-130.73C341,-130.73 969,-130.73 969,-130.73 975,-130.73 981,-136.73 981,-142.73 981,-142.73 981,-469.88 981,-469.88 981,-475.88 975,-481.88 969,-481.88 969,-481.88 341,-481.88 341,-481.88 335,-481.88 329,-475.88 329,-469.88 329,-469.88 329,-142.73 329,-142.73 329,-136.73 335,-130.73 341,-130.73"/>
<text text-anchor="middle" x="655" y="-460.27" font-family="Inter,Arial,sans-serif" font-size="22.00" fill="#79c0ff">3. Normal server behavior: server.js</text>
</g>
<!-- container_start -->
<g id="node1" class="node">
<title>container_start</title>
<ellipse fill="#101f35" stroke="#1f6feb" cx="356" cy="-728.5" rx="45.01" ry="45.01"/>
<text text-anchor="middle" x="356" y="-731.5" font-family="Inter,Arial,sans-serif" font-size="10.00" fill="#f0f6fc">container</text>
<text text-anchor="middle" x="356" y="-720.5" font-family="Inter,Arial,sans-serif" font-size="10.00" fill="#f0f6fc">starts</text>
</g>
<!-- startup_cmd -->
<g id="node4" class="node">
<title>startup_cmd</title>
<path fill="#101f35" stroke="#1f6feb" d="M409.5,-563.88C409.5,-563.88 302.5,-563.88 302.5,-563.88 296.5,-563.88 290.5,-557.88 290.5,-551.88 290.5,-551.88 290.5,-537.88 290.5,-537.88 290.5,-531.88 296.5,-525.88 302.5,-525.88 302.5,-525.88 409.5,-525.88 409.5,-525.88 415.5,-525.88 421.5,-531.88 421.5,-537.88 421.5,-537.88 421.5,-551.88 421.5,-551.88 421.5,-557.88 415.5,-563.88 409.5,-563.88"/>
<text text-anchor="middle" x="356" y="-547.88" font-family="Inter,Arial,sans-serif" font-size="10.00" fill="#f0f6fc">Docker CMD</text>
<text text-anchor="middle" x="356" y="-536.88" font-family="Inter,Arial,sans-serif" font-size="10.00" fill="#f0f6fc">db:push → seed → start</text>
</g>
<!-- container_start&#45;&gt;startup_cmd -->
<g id="edge3" class="edge">
<title>container_start&#45;&gt;startup_cmd</title>
<path fill="none" stroke="#8b949e" d="M356,-683.07C356,-647.98 356,-600.26 356,-571.34"/>
<polygon fill="#8b949e" stroke="#8b949e" points="358.52,-571.26 356,-564.06 353.48,-571.26 358.52,-571.26"/>
<text text-anchor="middle" x="365.5" y="-621.36" font-family="Inter,Arial,sans-serif" font-size="9.00" fill="#c9d1d9">runs</text>
</g>
<!-- compose_flag -->
<g id="node2" class="node">
<title>compose_flag</title>
<path fill="#123227" stroke="#3fb950" stroke-width="2" d="M349.5,-897.16C349.5,-900.56 322.83,-903.32 290,-903.32 257.17,-903.32 230.5,-900.56 230.5,-897.16 230.5,-897.16 230.5,-841.73 230.5,-841.73 230.5,-838.33 257.17,-835.57 290,-835.57 322.83,-835.57 349.5,-838.33 349.5,-841.73 349.5,-841.73 349.5,-897.16 349.5,-897.16"/>
<path fill="none" stroke="#3fb950" stroke-width="2" d="M349.5,-897.16C349.5,-893.77 322.83,-891 290,-891 257.17,-891 230.5,-893.77 230.5,-897.16"/>
<text text-anchor="middle" x="290" y="-877.95" font-family="Inter,Arial,sans-serif" font-size="10.00" fill="#f0f6fc">Location 1</text>
<text text-anchor="middle" x="290" y="-866.95" font-family="Inter,Arial,sans-serif" font-size="10.00" fill="#f0f6fc">compose.deploy.yaml</text>
<text text-anchor="middle" x="290" y="-855.95" font-family="Inter,Arial,sans-serif" font-size="10.00" fill="#f0f6fc">FLAG configuration</text>
</g>
<!-- compose_flag&#45;&gt;container_start -->
<g id="edge1" class="edge">
<title>compose_flag&#45;&gt;container_start</title>
<path fill="none" stroke="#3fb950" d="M305.64,-835.52C314.03,-817.86 324.51,-795.8 333.73,-776.38"/>
<polygon fill="#3fb950" stroke="#3fb950" points="336.13,-777.22 336.94,-769.63 331.57,-775.05 336.13,-777.22"/>
<text text-anchor="middle" x="363" y="-802.56" font-family="Inter,Arial,sans-serif" font-size="9.00" fill="#7ee787">configures container</text>
</g>
<!-- process_env -->
<g id="node3" class="node">
<title>process_env</title>
<path fill="#123227" stroke="#3fb950" stroke-width="2" d="M340,-651.28C340,-654.68 304.59,-657.44 261,-657.44 217.41,-657.44 182,-654.68 182,-651.28 182,-651.28 182,-595.85 182,-595.85 182,-592.45 217.41,-589.69 261,-589.69 304.59,-589.69 340,-592.45 340,-595.85 340,-595.85 340,-651.28 340,-651.28"/>
<path fill="none" stroke="#3fb950" stroke-width="2" d="M340,-651.28C340,-647.88 304.59,-645.12 261,-645.12 217.41,-645.12 182,-647.88 182,-651.28"/>
<text text-anchor="middle" x="261" y="-632.06" font-family="Inter,Arial,sans-serif" font-size="10.00" fill="#f0f6fc">Location 2</text>
<text text-anchor="middle" x="261" y="-621.06" font-family="Inter,Arial,sans-serif" font-size="10.00" fill="#f0f6fc">container process environment</text>
<text text-anchor="middle" x="261" y="-610.06" font-family="Inter,Arial,sans-serif" font-size="10.00" fill="#f0f6fc">process.env.FLAG</text>
</g>
<!-- compose_flag&#45;&gt;process_env -->
<g id="edge2" class="edge">
<title>compose_flag&#45;&gt;process_env</title>
<path fill="none" stroke="#3fb950" stroke-width="2" d="M251.87,-836.01C235.91,-822.44 221,-809.76 221,-809.76 221,-809.76 221,-799.76 221,-799.76 221,-799.76 240.05,-716.3 251.86,-664.59"/>
<polygon fill="#3fb950" stroke="#3fb950" stroke-width="2" points="254.33,-665.1 253.48,-657.52 249.42,-663.97 254.33,-665.1"/>
<text text-anchor="middle" x="266.5" y="-802.56" font-family="Inter,Arial,sans-serif" font-size="9.00" fill="#7ee787">injected into container</text>
</g>
<!-- seed_read -->
<g id="node5" class="node">
<title>seed_read</title>
<path fill="#123227" stroke="#3fb950" d="M292.5,-435.38C292.5,-435.38 189.5,-435.38 189.5,-435.38 183.5,-435.38 177.5,-429.38 177.5,-423.38 177.5,-423.38 177.5,-411.38 177.5,-411.38 177.5,-405.38 183.5,-399.38 189.5,-399.38 189.5,-399.38 292.5,-399.38 292.5,-399.38 298.5,-399.38 304.5,-405.38 304.5,-411.38 304.5,-411.38 304.5,-423.38 304.5,-423.38 304.5,-429.38 298.5,-435.38 292.5,-435.38"/>
<text text-anchor="middle" x="241" y="-414.88" font-family="Inter,Arial,sans-serif" font-size="10.00" fill="#f0f6fc">read process.env.FLAG</text>
</g>
<!-- process_env&#45;&gt;seed_read -->
<g id="edge5" class="edge">
<title>process_env&#45;&gt;seed_read</title>
<path fill="none" stroke="#3fb950" stroke-width="2" d="M257.79,-589.76C253.77,-548.71 246.97,-479.37 243.39,-442.74"/>
<polygon fill="#3fb950" stroke="#3fb950" stroke-width="2" points="245.88,-442.36 242.67,-435.44 240.87,-442.85 245.88,-442.36"/>
<text text-anchor="middle" x="264.5" y="-542.67" font-family="Inter,Arial,sans-serif" font-size="9.00" fill="#7ee787">read</text>
</g>
<!-- server_start -->
<g id="node8" class="node">
<title>server_start</title>
<path fill="#101f35" stroke="#1f6feb" d="M684.5,-441.88C684.5,-441.88 521.5,-441.88 521.5,-441.88 515.5,-441.88 509.5,-435.88 509.5,-429.88 509.5,-429.88 509.5,-404.88 509.5,-404.88 509.5,-398.88 515.5,-392.88 521.5,-392.88 521.5,-392.88 684.5,-392.88 684.5,-392.88 690.5,-392.88 696.5,-398.88 696.5,-404.88 696.5,-404.88 696.5,-429.88 696.5,-429.88 696.5,-435.88 690.5,-441.88 684.5,-441.88"/>
<text text-anchor="middle" x="603" y="-425.88" font-family="Inter,Arial,sans-serif" font-size="10.00" fill="#f0f6fc">Express server starts</text>
<text text-anchor="middle" x="603" y="-414.88" font-family="Inter,Arial,sans-serif" font-size="10.00" fill="#f0f6fc">FLAG environment remains inherited,</text>
<text text-anchor="middle" x="603" y="-403.88" font-family="Inter,Arial,sans-serif" font-size="10.00" fill="#f0f6fc">but server.js never reads it</text>
</g>
<!-- process_env&#45;&gt;server_start -->
<g id="edge9" class="edge">
<title>process_env&#45;&gt;server_start</title>
<path fill="none" stroke="#8b949e" stroke-dasharray="5,2" d="M340.24,-593.13C345.64,-591.12 349,-589.88 349,-589.88 349,-589.88 437,-563.88 437,-563.88 437,-563.88 545,-499.88 545,-499.88 545,-499.88 565.3,-471.35 581.89,-448.05"/>
<polygon fill="#8b949e" stroke="#8b949e" points="584.1,-449.28 586.22,-441.95 580,-446.35 584.1,-449.28"/>
<text text-anchor="middle" x="555.5" y="-542.67" font-family="Inter,Arial,sans-serif" font-size="9.00" fill="#c9d1d9">inherited but unused</text>
</g>
<!-- startup_cmd&#45;&gt;seed_read -->
<g id="edge4" class="edge">
<title>startup_cmd&#45;&gt;seed_read</title>
<path fill="none" stroke="#8b949e" d="M339.28,-525.63C318.75,-503.22 283.93,-465.22 261.72,-440.99"/>
<polygon fill="#8b949e" stroke="#8b949e" points="263.36,-439.04 256.63,-435.44 259.64,-442.45 263.36,-439.04"/>
<text text-anchor="middle" x="343.5" y="-492.68" font-family="Inter,Arial,sans-serif" font-size="9.00" fill="#c9d1d9">npm run seed</text>
</g>
<!-- startup_cmd&#45;&gt;server_start -->
<g id="edge8" class="edge">
<title>startup_cmd&#45;&gt;server_start</title>
<path fill="none" stroke="#8b949e" d="M391.65,-525.76C433.12,-504.69 501.99,-469.7 549.79,-445.41"/>
<polygon fill="#8b949e" stroke="#8b949e" points="551.11,-447.57 556.39,-442.06 548.83,-443.07 551.11,-447.57"/>
<text text-anchor="middle" x="497.5" y="-492.68" font-family="Inter,Arial,sans-serif" font-size="9.00" fill="#c9d1d9">npm start after seed</text>
</g>
<!-- local_flag -->
<g id="node6" class="node">
<title>local_flag</title>
<path fill="#123227" stroke="#3fb950" stroke-width="2" d="M293,-326.23C293,-328.86 265.66,-331 232,-331 198.34,-331 171,-328.86 171,-326.23 171,-326.23 171,-283.27 171,-283.27 171,-280.64 198.34,-278.5 232,-278.5 265.66,-278.5 293,-280.64 293,-283.27 293,-283.27 293,-326.23 293,-326.23"/>
<path fill="none" stroke="#3fb950" stroke-width="2" d="M293,-326.23C293,-323.59 265.66,-321.45 232,-321.45 198.34,-321.45 171,-323.59 171,-326.23"/>
<text text-anchor="middle" x="232" y="-307.75" font-family="Inter,Arial,sans-serif" font-size="10.00" fill="#f0f6fc">Location 3 (temporary)</text>
<text text-anchor="middle" x="232" y="-296.75" font-family="Inter,Arial,sans-serif" font-size="10.00" fill="#f0f6fc">const flag</text>
</g>
<!-- seed_read&#45;&gt;local_flag -->
<g id="edge6" class="edge">
<title>seed_read&#45;&gt;local_flag</title>
<path fill="none" stroke="#3fb950" stroke-width="2" d="M239.59,-399.09C238.28,-382.92 236.28,-358.36 234.66,-338.49"/>
<polygon fill="#3fb950" stroke="#3fb950" stroke-width="2" points="237.16,-338.1 234.06,-331.13 232.14,-338.51 237.16,-338.1"/>
<text text-anchor="middle" x="250" y="-359.68" font-family="Inter,Arial,sans-serif" font-size="9.00" fill="#7ee787">copied</text>
</g>
<!-- hidden_product -->
<g id="node7" class="node">
<title>hidden_product</title>
<path fill="#123227" stroke="#3fb950" stroke-width="2" d="M306.5,-207.6C306.5,-212.48 267.73,-216.44 220,-216.44 172.27,-216.44 133.5,-212.48 133.5,-207.6 133.5,-207.6 133.5,-128.03 133.5,-128.03 133.5,-123.15 172.27,-119.19 220,-119.19 267.73,-119.19 306.5,-123.15 306.5,-128.03 306.5,-128.03 306.5,-207.6 306.5,-207.6"/>
<path fill="none" stroke="#3fb950" stroke-width="2" d="M306.5,-207.6C306.5,-202.72 267.73,-198.76 220,-198.76 172.27,-198.76 133.5,-202.72 133.5,-207.6"/>
<text text-anchor="middle" x="220" y="-187.31" font-family="Inter,Arial,sans-serif" font-size="10.00" fill="#f0f6fc">Location 4 (persistent SQLite row)</text>
<text text-anchor="middle" x="220" y="-176.31" font-family="Inter,Arial,sans-serif" font-size="10.00" fill="#f0f6fc">Product id=1001</text>
<text text-anchor="middle" x="220" y="-165.31" font-family="Inter,Arial,sans-serif" font-size="10.00" fill="#f0f6fc">name: Warranty Extension</text>
<text text-anchor="middle" x="220" y="-154.31" font-family="Inter,Arial,sans-serif" font-size="10.00" fill="#f0f6fc">description: FLAG</text>
<text text-anchor="middle" x="220" y="-143.31" font-family="Inter,Arial,sans-serif" font-size="10.00" fill="#f0f6fc">listed: false</text>
</g>
<!-- local_flag&#45;&gt;hidden_product -->
<g id="edge7" class="edge">
<title>local_flag&#45;&gt;hidden_product</title>
<path fill="none" stroke="#3fb950" stroke-width="2" d="M229.74,-278.37C228.37,-262.93 226.56,-242.61 224.88,-223.66"/>
<polygon fill="#3fb950" stroke="#3fb950" stroke-width="2" points="227.39,-223.42 224.24,-216.48 222.37,-223.87 227.39,-223.42"/>
<text text-anchor="middle" x="262" y="-245.43" font-family="Inter,Arial,sans-serif" font-size="9.00" fill="#7ee787">description = flag</text>
</g>
<!-- audit_goal -->
<g id="node15" class="node">
<title>audit_goal</title>
<path fill="#272115" stroke="#d29922" stroke-width="2" d="M671,-53C671,-53 489,-53 489,-53 483,-53 477,-47 477,-41 477,-41 477,-16 477,-16 477,-10 483,-4 489,-4 489,-4 671,-4 671,-4 677,-4 683,-10 683,-16 683,-16 683,-41 683,-41 683,-47 677,-53 671,-53"/>
<path fill="none" stroke="#d29922" stroke-width="2" d="M675,-57C675,-57 485,-57 485,-57 479,-57 473,-51 473,-45 473,-45 473,-12 473,-12 473,-6 479,0 485,0 485,0 675,0 675,0 681,0 687,-6 687,-12 687,-12 687,-45 687,-45 687,-51 681,-57 675,-57"/>
<text text-anchor="middle" x="580" y="-37" font-family="Inter,Arial,sans-serif" font-size="10.00" fill="#fff3bf">Review objective</text>
<text text-anchor="middle" x="580" y="-26" font-family="Inter,Arial,sans-serif" font-size="10.00" fill="#fff3bf">find a vulnerability that makes the service</text>
<text text-anchor="middle" x="580" y="-15" font-family="Inter,Arial,sans-serif" font-size="10.00" fill="#fff3bf">expose a FLAG&#45;bearing location</text>
</g>
<!-- hidden_product&#45;&gt;audit_goal -->
<g id="edge16" class="edge">
<title>hidden_product&#45;&gt;audit_goal</title>
<path fill="none" stroke="#3fb950" stroke-width="2" d="M300.87,-122.56C313.25,-115.79 322,-111 322,-111 322,-111 411.91,-82.6 485.58,-59.33"/>
<polygon fill="#3fb950" stroke="#3fb950" stroke-width="2" points="486.55,-61.66 492.65,-57.09 485.03,-56.86 486.55,-61.66"/>
<text text-anchor="middle" x="456.5" y="-85.8" font-family="Inter,Arial,sans-serif" font-size="9.00" fill="#7ee787">valuable persistent target</text>
</g>
<!-- list_route -->
<g id="node9" class="node">
<title>list_route</title>
<path fill="#161b22" stroke="#30363d" d="M935.5,-323.75C935.5,-323.75 844.5,-323.75 844.5,-323.75 838.5,-323.75 832.5,-317.75 832.5,-311.75 832.5,-311.75 832.5,-297.75 832.5,-297.75 832.5,-291.75 838.5,-285.75 844.5,-285.75 844.5,-285.75 935.5,-285.75 935.5,-285.75 941.5,-285.75 947.5,-291.75 947.5,-297.75 947.5,-297.75 947.5,-311.75 947.5,-311.75 947.5,-317.75 941.5,-323.75 935.5,-323.75"/>
<text text-anchor="middle" x="890" y="-307.75" font-family="Inter,Arial,sans-serif" font-size="10.00" fill="#f0f6fc">GET /products</text>
<text text-anchor="middle" x="890" y="-296.75" font-family="Inter,Arial,sans-serif" font-size="10.00" fill="#f0f6fc">where: { listed: true }</text>
</g>
<!-- server_start&#45;&gt;list_route -->
<g id="edge10" class="edge">
<title>server_start&#45;&gt;list_route</title>
<path fill="none" stroke="#8b949e" d="M664.22,-392.78C715.32,-373.08 787.44,-345.28 836.32,-326.44"/>
<polygon fill="#8b949e" stroke="#8b949e" points="837.24,-328.79 843.06,-323.84 835.43,-324.08 837.24,-328.79"/>
</g>
<!-- cart_route -->
<g id="node10" class="node">
<title>cart_route</title>
<path fill="#161b22" stroke="#30363d" d="M560.5,-323.75C560.5,-323.75 409.5,-323.75 409.5,-323.75 403.5,-323.75 397.5,-317.75 397.5,-311.75 397.5,-311.75 397.5,-297.75 397.5,-297.75 397.5,-291.75 403.5,-285.75 409.5,-285.75 409.5,-285.75 560.5,-285.75 560.5,-285.75 566.5,-285.75 572.5,-291.75 572.5,-297.75 572.5,-297.75 572.5,-311.75 572.5,-311.75 572.5,-317.75 566.5,-323.75 560.5,-323.75"/>
<text text-anchor="middle" x="485" y="-307.75" font-family="Inter,Arial,sans-serif" font-size="10.00" fill="#f0f6fc">POST /cart</text>
<text text-anchor="middle" x="485" y="-296.75" font-family="Inter,Arial,sans-serif" font-size="10.00" fill="#f0f6fc">where: { id: productId, listed: true }</text>
</g>
<!-- server_start&#45;&gt;cart_route -->
<g id="edge11" class="edge">
<title>server_start&#45;&gt;cart_route</title>
<path fill="none" stroke="#8b949e" d="M577.69,-392.64C557.63,-373.84 529.77,-347.72 509.84,-329.03"/>
<polygon fill="#8b949e" stroke="#8b949e" points="511.41,-327.06 504.44,-323.97 507.97,-330.74 511.41,-327.06"/>
</g>
<!-- redeem_route -->
<g id="node11" class="node">
<title>redeem_route</title>
<path fill="#161b22" stroke="#30363d" d="M769.5,-329.25C769.5,-329.25 636.5,-329.25 636.5,-329.25 630.5,-329.25 624.5,-323.25 624.5,-317.25 624.5,-317.25 624.5,-292.25 624.5,-292.25 624.5,-286.25 630.5,-280.25 636.5,-280.25 636.5,-280.25 769.5,-280.25 769.5,-280.25 775.5,-280.25 781.5,-286.25 781.5,-292.25 781.5,-292.25 781.5,-317.25 781.5,-317.25 781.5,-323.25 775.5,-329.25 769.5,-329.25"/>
<text text-anchor="middle" x="703" y="-313.25" font-family="Inter,Arial,sans-serif" font-size="10.00" fill="#f0f6fc">POST /redeem</text>
<text text-anchor="middle" x="703" y="-302.25" font-family="Inter,Arial,sans-serif" font-size="10.00" fill="#f0f6fc">returns the Product referenced</text>
<text text-anchor="middle" x="703" y="-291.25" font-family="Inter,Arial,sans-serif" font-size="10.00" fill="#f0f6fc">by a CheckoutPass CartItem</text>
</g>
<!-- server_start&#45;&gt;redeem_route -->
<g id="edge12" class="edge">
<title>server_start&#45;&gt;redeem_route</title>
<path fill="none" stroke="#8b949e" d="M624.45,-392.64C639.74,-375.73 660.39,-352.89 676.68,-334.87"/>
<polygon fill="#8b949e" stroke="#8b949e" points="678.62,-336.47 681.58,-329.44 674.89,-333.09 678.62,-336.47"/>
</g>
<!-- list_block -->
<g id="node12" class="node">
<title>list_block</title>
<path fill="#321c1c" stroke="#f85149" d="M973.1,-164.94C973.1,-164.94 973.1,-170.69 973.1,-170.69 973.1,-173.56 970.33,-177.19 967.55,-177.94 967.55,-177.94 933.49,-187.14 933.49,-187.14 930.71,-187.89 925.06,-188.64 922.19,-188.64 922.19,-188.64 869.81,-188.64 869.81,-188.64 866.94,-188.64 861.29,-187.89 858.51,-187.14 858.51,-187.14 824.45,-177.94 824.45,-177.94 821.67,-177.19 818.9,-173.56 818.9,-170.69 818.9,-170.69 818.9,-164.94 818.9,-164.94 818.9,-162.06 821.67,-158.43 824.45,-157.68 824.45,-157.68 858.51,-148.48 858.51,-148.48 861.29,-147.73 866.94,-146.98 869.81,-146.98 869.81,-146.98 922.19,-146.98 922.19,-146.98 925.06,-146.98 930.71,-147.73 933.49,-148.48 933.49,-148.48 967.55,-157.68 967.55,-157.68 970.33,-158.43 973.1,-162.06 973.1,-164.94"/>
<text text-anchor="middle" x="896" y="-165.31" font-family="Inter,Arial,sans-serif" font-size="10.00" fill="#f0f6fc">id=1001 excluded</text>
</g>
<!-- list_route&#45;&gt;list_block -->
<g id="edge13" class="edge">
<title>list_route&#45;&gt;list_block</title>
<path fill="none" stroke="#f85149" d="M890.81,-285.55C891.83,-262.64 893.59,-223.04 894.77,-196.4"/>
<polygon fill="#f85149" stroke="#f85149" points="897.3,-196.22 895.11,-188.92 892.27,-196 897.3,-196.22"/>
<text text-anchor="middle" x="915.5" y="-245.43" font-family="Inter,Arial,sans-serif" font-size="9.00" fill="#ff7b72">listed=false</text>
</g>
<!-- cart_block -->
<g id="node13" class="node">
<title>cart_block</title>
<path fill="#321c1c" stroke="#f85149" d="M601.32,-163.79C601.32,-163.79 601.32,-171.84 601.32,-171.84 601.32,-175.87 597.38,-180.76 593.45,-181.63 593.45,-181.63 531.67,-195.25 531.67,-195.25 527.74,-196.11 519.78,-196.98 515.75,-196.98 515.75,-196.98 422.25,-196.98 422.25,-196.98 418.22,-196.98 410.26,-196.11 406.33,-195.25 406.33,-195.25 344.55,-181.63 344.55,-181.63 340.62,-180.76 336.68,-175.87 336.68,-171.84 336.68,-171.84 336.68,-163.79 336.68,-163.79 336.68,-159.76 340.62,-154.86 344.55,-154 344.55,-154 406.33,-140.38 406.33,-140.38 410.26,-139.51 418.22,-138.64 422.25,-138.64 422.25,-138.64 515.75,-138.64 515.75,-138.64 519.78,-138.64 527.74,-139.51 531.67,-140.38 531.67,-140.38 593.45,-154 593.45,-154 597.38,-154.86 601.32,-159.76 601.32,-163.79"/>
<text text-anchor="middle" x="469" y="-170.81" font-family="Inter,Arial,sans-serif" font-size="10.00" fill="#f0f6fc">cannot normally create a cart item</text>
<text text-anchor="middle" x="469" y="-159.81" font-family="Inter,Arial,sans-serif" font-size="10.00" fill="#f0f6fc">for id=1001</text>
</g>
<!-- cart_route&#45;&gt;cart_block -->
<g id="edge14" class="edge">
<title>cart_route&#45;&gt;cart_block</title>
<path fill="none" stroke="#f85149" d="M482.84,-285.55C480.39,-264.86 476.32,-230.58 473.23,-204.5"/>
<polygon fill="#f85149" stroke="#f85149" points="475.7,-203.9 472.35,-197.04 470.69,-204.49 475.7,-203.9"/>
<text text-anchor="middle" x="501.5" y="-245.43" font-family="Inter,Arial,sans-serif" font-size="9.00" fill="#ff7b72">listed=false</text>
</g>
<!-- normal_response -->
<g id="node14" class="node">
<title>normal_response</title>
<path fill="#272115" stroke="#d29922" d="M776.5,-186.81C776.5,-186.81 643.5,-186.81 643.5,-186.81 637.5,-186.81 631.5,-180.81 631.5,-174.81 631.5,-174.81 631.5,-160.81 631.5,-160.81 631.5,-154.81 637.5,-148.81 643.5,-148.81 643.5,-148.81 776.5,-148.81 776.5,-148.81 782.5,-148.81 788.5,-154.81 788.5,-160.81 788.5,-160.81 788.5,-174.81 788.5,-174.81 788.5,-180.81 782.5,-186.81 776.5,-186.81"/>
<text text-anchor="middle" x="710" y="-170.81" font-family="Inter,Arial,sans-serif" font-size="10.00" fill="#f0f6fc">normal response contains only</text>
<text text-anchor="middle" x="710" y="-159.81" font-family="Inter,Arial,sans-serif" font-size="10.00" fill="#f0f6fc">an allowed product</text>
</g>
<!-- redeem_route&#45;&gt;normal_response -->
<g id="edge15" class="edge">
<title>redeem_route&#45;&gt;normal_response</title>
<path fill="none" stroke="#8b949e" d="M704.22,-280.25C705.47,-256.16 707.41,-218.83 708.69,-194.11"/>
<polygon fill="#8b949e" stroke="#8b949e" points="711.21,-194.19 709.06,-186.87 706.17,-193.93 711.21,-194.19"/>
<text text-anchor="middle" x="734.5" y="-245.43" font-family="Inter,Arial,sans-serif" font-size="9.00" fill="#c9d1d9">intended path</text>
</g>
<!-- list_block&#45;&gt;audit_goal -->
<g id="edge17" class="edge">
<title>list_block&#45;&gt;audit_goal</title>
<path fill="none" stroke="#8b949e" stroke-dasharray="5,2" d="M866.38,-146.95C829.41,-122.17 771,-83 771,-83 771,-83 729.64,-71.42 685.41,-59.03"/>
<polygon fill="#8b949e" stroke="#8b949e" points="685.91,-56.55 678.3,-57.03 684.55,-61.4 685.91,-56.55"/>
<text text-anchor="middle" x="826" y="-85.8" font-family="Inter,Arial,sans-serif" font-size="9.00" fill="#c9d1d9">normal path blocked</text>
</g>
<!-- cart_block&#45;&gt;audit_goal -->
<g id="edge18" class="edge">
<title>cart_block&#45;&gt;audit_goal</title>
<path fill="none" stroke="#8b949e" stroke-dasharray="5,2" d="M491.73,-138.69C509.51,-116.7 534.27,-86.07 553.04,-62.85"/>
<polygon fill="#8b949e" stroke="#8b949e" points="555.11,-64.3 557.68,-57.11 551.19,-61.13 555.11,-64.3"/>
<text text-anchor="middle" x="576" y="-85.8" font-family="Inter,Arial,sans-serif" font-size="9.00" fill="#c9d1d9">normal path blocked</text>
</g>
<!-- normal_response&#45;&gt;audit_goal -->
<g id="edge19" class="edge">
<title>normal_response&#45;&gt;audit_goal</title>
<path fill="none" stroke="#d29922" d="M692.74,-148.58C671.95,-126.62 636.65,-89.34 611.08,-62.33"/>
<polygon fill="#d29922" stroke="#d29922" points="612.89,-60.57 606.11,-57.07 609.23,-64.03 612.89,-60.57"/>
<text text-anchor="middle" x="700.5" y="-85.8" font-family="Inter,Arial,sans-serif" font-size="9.00" fill="#e3b341">inspect for unintended retrieval</text>
</g>
</g>
</svg>
